<?xml version="1.0" encoding="UTF-8" standalone="no"?>
<svg width="51px" height="51px" viewBox="0 0 51 51" version="1.1" xmlns="http://www.w3.org/2000/svg" xmlns:xlink="http://www.w3.org/1999/xlink">
    <!-- Generator: Sketch 3.8.3 (29802) - http://www.bohemiancoding.com/sketch -->
    <title>dribbble-logo</title>
    <desc>Created with Sketch.</desc>
    <defs></defs>
    <g id="Page-1" stroke="none" stroke-width="1" fill="none" fill-rule="evenodd">
        <g id="dribbble-logo">
            <rect id="Rectangle-2" fill="#EA4C89" x="0" y="0" width="51" height="51"></rect>
            <g id="media" transform="translate(8.000000, 9.000000)">
                <g id="Group">
                    <g id="svg_1">
                        <g transform="translate(16.500000, 16.500000) scale(1, -1) translate(-16.500000, -16.500000) ">
                            <path d="M15.3206501,32.9588413 C11.3815074,32.6660672 7.78837044,31.0463039 4.96709254,28.2896644 C1.25608549,24.6699117 -0.523372808,19.5444634 0.134418401,14.3962016 C0.955706846,7.95897316 5.49560686,2.59778469 11.7313154,0.700456295 C16.5525828,-0.767216575 21.9175735,0.103501267 26.0050044,3.01223118 C31.0277916,6.59015908 33.6399452,12.525489 32.8642839,18.6015026 C32.0429954,25.038731 27.5030954,30.3999195 21.2673868,32.2972479 C19.4118833,32.8637848 17.2483966,33.1033273 15.3206501,32.9588413 L15.3206501,32.9588413 Z" id="svg_2" fill="#FFFFFF"></path>
                            <path d="M15.0796707,31.1898357 C13.9434069,31.0326929 13.2241762,30.8695061 13.2543959,30.7788467 C13.2725278,30.742583 13.5626377,30.331594 13.9010993,29.8662094 C15.2005498,28.0832423 16.6692312,25.786539 17.8598905,23.6711543 C18.1862642,23.0909345 18.4582422,22.607418 18.4642861,22.5953301 C18.5005499,22.5469785 19.7153851,23.0788466 20.6703301,23.5563192 C22.7252752,24.5837917 24.2423082,25.7260994 25.4813192,27.1887368 L25.928572,27.714561 L25.372528,28.1497258 C23.3901104,29.6909346 21.3049455,30.6337918 18.9478026,31.0508248 C18.3615389,31.159616 17.938462,31.1837918 16.7417586,31.1958797 C15.9258246,31.2079676 15.182418,31.2019237 15.0796707,31.1898357 L15.0796707,31.1898357 Z" id="svg_3" fill="#EA4C89"></path>
                            <path d="M9.73076952,29.5156599 C8.58846181,28.8810445 7.70000026,28.2222533 6.71483541,27.2673082 C4.72637384,25.3453302 3.31208811,22.9156598 2.64120898,20.274451 L2.55054963,19.9299455 L2.95549469,19.9541213 C3.17307712,19.9722532 3.88626394,19.996429 4.53296725,20.0145609 C6.9505497,20.0750004 9.90000029,20.4255499 12.5109893,20.957418 C13.7560443,21.2112642 15.6598905,21.6826927 15.6296707,21.7250004 C14.5538465,23.7074181 10.5769234,29.8359896 10.3714289,29.8359896 C10.3351651,29.8359896 10.0450552,29.6909346 9.73076952,29.5156599 L9.73076952,29.5156599 Z" id="svg_4" fill="#EA4C89"></path>
                            <path d="M27.2280225,25.5991763 C26.4060445,24.5958796 24.6049456,23.1151104 22.9368137,22.0695059 C22.2659345,21.652473 20.4890114,20.7217037 19.9027477,20.4799455 L19.588462,20.3530224 L19.9510993,19.579396 C20.1505499,19.1563191 20.4406598,18.5398356 20.5978026,18.2134619 L20.8758246,17.6151103 L21.1840664,17.651374 C23.6258247,17.9535718 27.022528,17.8085169 29.8390116,17.2887366 C30.2802204,17.2101652 30.6609896,17.1436817 30.6851654,17.1436817 C30.7576929,17.1436817 30.6670336,18.7271982 30.5521984,19.4101652 C30.195605,21.6282971 29.3192314,23.6651104 27.9109896,25.5447807 C27.7417588,25.780495 27.5846159,25.9678576 27.5664841,25.9678576 C27.5483522,25.9678576 27.3972533,25.7986269 27.2280225,25.5991763 L27.2280225,25.5991763 Z" id="svg_5" fill="#EA4C89"></path>
                            <path d="M16.4395608,19.3436817 C15.9318685,19.1804949 13.8769234,18.6667586 12.9642861,18.473352 C9.97252777,17.8508246 6.09835188,17.4458795 3.17912107,17.4458795 L2.224176,17.4458795 L2.26043974,16.5876377 C2.39945073,13.6140113 3.14890129,11.2387366 4.61758263,9.07500025 C5.0346156,8.46456068 5.80219803,7.47939584 5.86263759,7.47335188 C5.88076946,7.47335188 5.98956067,7.63049474 6.10439584,7.82390133 C6.86593431,9.09917608 8.54011016,11.0936816 9.96043985,12.4052201 C11.3868135,13.7288465 12.9824179,14.7986267 15.0192311,15.8140113 C16.1554949,16.3821432 17.4791213,16.9381872 17.8417587,17.0046707 L17.9989015,17.0348905 L17.7329674,17.6755498 C17.382418,18.5156597 16.9049455,19.4041213 16.7961542,19.4222532 C16.7478026,19.4282971 16.5906597,19.3920334 16.4395608,19.3436817 L16.4395608,19.3436817 Z" id="svg_6" fill="#EA4C89"></path>
                            <path d="M23.027473,15.4815938 C22.61044,15.4392861 22.1571433,15.3909344 22.0181323,15.3667586 L21.7642862,15.3184069 L22.0000005,14.6475278 C22.5923082,12.967308 23.2631873,10.7189563 23.716484,8.89368157 C24.00055,7.7453299 24.3813192,6.00467054 24.4478027,5.527198 C24.4719785,5.36401119 24.5142862,5.23708811 24.538462,5.23708811 C24.6230774,5.23708811 25.5236269,5.90796724 26.0917588,6.39752769 C28.1346159,8.15027497 29.5791215,10.5315937 30.2802204,13.3057695 C30.4071435,13.8074179 30.5280226,14.3151102 30.5461544,14.4420333 C30.5945061,14.7140113 30.6186819,14.7019234 29.5368138,14.9739014 C27.4274731,15.5057696 25.0884621,15.6870883 23.027473,15.4815938 L23.027473,15.4815938 Z" id="svg_7" fill="#EA4C89"></path>
                            <path d="M18.1923081,14.3090663 C14.209341,12.7859893 11.1994509,10.6343409 9.07802226,7.79368155 C8.56428599,7.10467055 7.736264,5.77500021 7.77857169,5.70851669 C7.84505521,5.58763757 9.47692336,4.56016502 10.0692311,4.25192326 C13.3510992,2.57774741 17.0258246,2.26346169 20.6098906,3.33928588 C21.3412093,3.56291226 22.06044,3.8469782 22.06044,3.91346172 C22.06044,4.10082436 21.5285719,6.59697824 21.2626378,7.62445078 C20.6401103,10.0964288 19.1956048,14.5326926 19.0021982,14.5810443 C18.9719784,14.5931322 18.6093411,14.4662091 18.1923081,14.3090663 L18.1923081,14.3090663 Z" id="svg_8" fill="#EA4C89"></path>
                        </g>
                    </g>
                </g>
            </g>
        </g>
    </g>
</svg>